<?xml version="1.0" encoding="utf-8"?>
<!-- Generator: Adobe Illustrator 24.2.0, SVG Export Plug-In . SVG Version: 6.00 Build 0)  -->
<svg version="1.1" id="Layer_1" xmlns="http://www.w3.org/2000/svg" xmlns:xlink="http://www.w3.org/1999/xlink" x="0px" y="0px"
	 viewBox="0 0 1024 1024" style="enable-background:new 0 0 1024 1024;" xml:space="preserve">
<style type="text/css">
	.st0{fill:#FFCD00;stroke:#000000;stroke-width:65;stroke-miterlimit:10;}
	.st1{stroke:#000000;stroke-width:10;stroke-linejoin:round;stroke-miterlimit:10;}
</style>
<path class="st0" d="M731,987H293C151.62,987,37,872.38,37,731V293C37,151.62,151.62,37,293,37h438c141.38,0,256,114.62,256,256v438
	C987,872.38,872.38,987,731,987z"/>
<g>
	<path class="st1" d="M392.27,655.36l-14.06-53.52h-92.77l-14.45,53.52h-84.77l93.16-286.72h102.93l94.34,286.72H392.27z
		 M362.2,538.56l-12.3-46.88c-2.87-10.42-6.35-23.89-10.45-40.43c-4.1-16.53-6.81-28.38-8.11-35.55
		c-1.17,6.64-3.49,17.58-6.93,32.81c-3.45,15.23-11.1,45.25-22.95,90.04H362.2z"/>
	<path class="st1" d="M714.73,460.63c0,31.9-9.41,56.54-28.22,73.93c-18.82,17.38-45.54,26.07-80.18,26.07h-21.68v94.73h-77.15
		V369.81h98.83c36.07,0,63.15,7.88,81.25,23.63C705.68,409.2,714.73,431.6,714.73,460.63z M584.66,497.74h14.06
		c11.59,0,20.8-3.25,27.64-9.77c6.84-6.51,10.25-15.49,10.25-26.95c0-19.27-10.68-28.91-32.03-28.91h-19.92V497.74z"/>
	<path class="st1" d="M760.24,655.36V369.81h77.54v285.55H760.24z"/>
</g>
</svg>
