<?xml version="1.0" encoding="utf-8"?>
<!-- Generator: Adobe Illustrator 24.2.0, SVG Export Plug-In . SVG Version: 6.00 Build 0)  -->
<svg version="1.1" xmlns="http://www.w3.org/2000/svg" xmlns:xlink="http://www.w3.org/1999/xlink" x="0px" y="0px"
	 viewBox="0 0 1024 1024" style="enable-background:new 0 0 1024 1024;" xml:space="preserve">
<style type="text/css">
	.st0{display:none;}
	.st1{display:inline;}
	.st2{fill:#FFCD00;}
	.st3{stroke:#000000;stroke-width:10;stroke-linejoin:round;stroke-miterlimit:10;}
</style>
<g id="Rounded_BG" class="st0">
	<g class="st1">
		<path class="st2" d="M256,991.5c-59.7,0-115.82-23.25-158.04-65.46C55.75,883.83,32.5,827.7,32.5,768V256
			c0-59.7,23.25-115.82,65.46-158.04C140.18,55.75,196.3,32.5,256,32.5h512c59.7,0,115.83,23.25,158.04,65.46
			C968.25,140.18,991.5,196.3,991.5,256v512c0,59.7-23.25,115.83-65.46,158.04C883.83,968.25,827.7,991.5,768,991.5H256z"/>
		<path d="M768,65c51.02,0,98.98,19.87,135.06,55.94C939.13,157.02,959,204.98,959,256v512c0,51.02-19.87,98.98-55.94,135.06
			C866.98,939.13,819.02,959,768,959H256c-51.02,0-98.98-19.87-135.06-55.94C84.87,866.98,65,819.02,65,768V256
			c0-51.02,19.87-98.98,55.94-135.06C157.02,84.87,204.98,65,256,65H768 M768,0H256C114.61,0,0,114.61,0,256v512
			c0,141.39,114.61,256,256,256h512c141.39,0,256-114.61,256-256V256C1024,114.61,909.39,0,768,0L768,0z"/>
	</g>
</g>
<g id="Square_BG">
	<rect class="st2" width="1024" height="1024"/>
</g>
<g id="API">
	<g>
		<path class="st3" d="M392.27,655.36l-14.06-53.52h-92.77l-14.45,53.52h-84.77l93.16-286.72h102.93l94.34,286.72H392.27z
			 M362.2,538.56l-12.3-46.88c-2.87-10.42-6.35-23.89-10.45-40.43c-4.1-16.53-6.81-28.38-8.11-35.55
			c-1.17,6.64-3.49,17.58-6.93,32.81c-3.45,15.23-11.1,45.25-22.95,90.04H362.2z"/>
		<path class="st3" d="M714.73,460.63c0,31.9-9.41,56.54-28.22,73.93c-18.82,17.38-45.54,26.07-80.18,26.07h-21.68v94.73h-77.15
			V369.81h98.83c36.07,0,63.15,7.88,81.25,23.63C705.68,409.2,714.73,431.6,714.73,460.63z M584.66,497.74h14.06
			c11.59,0,20.8-3.25,27.64-9.77c6.84-6.51,10.25-15.49,10.25-26.95c0-19.27-10.68-28.91-32.03-28.91h-19.92V497.74z"/>
		<path class="st3" d="M760.24,655.36V369.81h77.54v285.55H760.24z"/>
	</g>
</g>
</svg>
