<?xml version="1.0" standalone="no"?>
<!DOCTYPE svg PUBLIC "-//W3C//DTD SVG 20010904//EN"
 "http://www.w3.org/TR/2001/REC-SVG-20010904/DTD/svg10.dtd">
<svg version="1.0" xmlns="http://www.w3.org/2000/svg"
 width="700.000000pt" height="700.000000pt" viewBox="0 0 700.000000 700.000000"
 preserveAspectRatio="xMidYMid meet">
<metadata>
Created by potrace 1.11, written by Peter Selinger 2001-2013
</metadata>
<g transform="translate(0.000000,700.000000) scale(0.100000,-0.100000)"
fill="#000000" stroke="none">
<path d="M1585 6993 c-367 -35 -743 -203 -1019 -455 -308 -281 -507 -677 -556
-1103 -14 -124 -14 -3746 0 -3870 76 -664 499 -1211 1122 -1451 117 -45 258
-80 401 -99 178 -23 3756 -23 3934 0 800 105 1413 718 1518 1518 13 102 15
361 15 1965 0 1200 -4 1879 -10 1937 -58 503 -317 946 -725 1240 -115 83 -337
195 -475 239 -59 20 -159 46 -221 58 l-114 23 -1915 1 c-1053 0 -1933 -1
-1955 -3z m3889 -459 c480 -84 873 -428 1021 -895 57 -181 55 -101 55 -2139 0
-1639 -2 -1887 -15 -1970 -43 -260 -171 -507 -365 -700 -193 -194 -433 -318
-699 -364 -85 -14 -289 -16 -1971 -16 -1682 0 -1886 2 -1971 16 -266 46 -506
170 -699 364 -194 193 -322 440 -365 700 -22 141 -23 3796 0 3937 87 537 515
969 1055 1067 61 11 419 14 1970 15 1671 1 1905 -1 1984 -15z"/>
<path d="M1892 4503 c-13 -13 -117 -319 -336 -994 -174 -537 -316 -983 -316
-992 0 -9 9 -21 19 -27 24 -12 590 -14 610 -1 7 5 35 87 61 182 l47 174 292 3
c160 1 291 0 291 -2 0 -2 20 -80 45 -173 28 -107 51 -172 62 -180 22 -17 574
-19 604 -3 10 6 19 18 19 28 0 33 -643 1977 -658 1990 -12 9 -101 12 -368 12
-321 0 -354 -2 -372 -17z m458 -843 c39 -151 73 -283 76 -292 5 -17 -7 -18
-156 -18 l-162 0 5 23 c3 12 38 153 78 314 51 201 76 285 81 270 4 -12 39
-146 78 -297z"/>
<path d="M3447 4495 c-16 -15 -17 -97 -17 -998 0 -601 4 -988 10 -997 8 -13
52 -15 279 -18 180 -2 277 1 291 8 19 10 20 20 20 324 l0 313 143 6 c262 11
421 70 558 207 57 56 85 94 112 150 60 125 71 185 71 360 0 141 -2 162 -27
236 -54 163 -176 291 -337 353 -154 60 -186 63 -656 68 -392 4 -432 3 -447
-12z m790 -504 c66 -30 93 -105 72 -202 -21 -100 -110 -159 -239 -159 l-40 0
0 190 0 190 83 0 c59 0 94 -6 124 -19z"/>
<path d="M5178 4499 c-17 -9 -18 -68 -18 -999 0 -885 2 -990 16 -1004 13 -14
53 -16 280 -16 164 0 273 4 285 10 19 10 19 32 19 1003 0 759 -3 996 -12 1005
-15 15 -544 17 -570 1z"/>
</g>
</svg>
